<svg xmlns="http://www.w3.org/2000/svg" xmlns:xlink="http://www.w3.org/1999/xlink" version="1.1" id="&#1057;&#1083;&#1086;&#1081;_1" x="0px" y="0px" viewBox="5.0 -10.0 100.0 135.0" enable-background="new 0 0 100 100" xml:space="preserve" height="100px" width="100px">
<g>
	<path d="M23.572,16.192c-1.545,1.037-8.296,0.415-7.328-2.067c1.174-3.008-3.663-4.298-4.821-1.329   c-0.729,1.869-0.48,3.489,0.38,4.818c0.86,1.328,2.33,2.364,4.044,3.064c1.713,0.7,3.669,1.066,5.5,1.052   c1.831-0.014,3.537-0.406,4.749-1.22C28.757,18.723,26.257,14.389,23.572,16.192L23.572,16.192z"/>
	<path d="M11.667,24.183c-0.745,1.805-0.531,3.401,0.279,4.72c0.81,1.319,2.221,2.362,3.883,3.065   c1.688,0.717,3.622,1.087,5.447,1.064s3.541-0.438,4.792-1.29c2.434-1.645,0.509-5.194-1.988-4.193   c-0.575,0.231-1.955,0.178-3.342,0.249l0,0c-1.432,0.06-2.925-0.211-3.741-0.854c-0.392-0.309-0.586-0.712-0.503-1.198   c0.013-0.075,0.028-0.15,0.025-0.225c-0.009-0.218,0.041-0.337,0.032-0.444C16.942,22.568,12.794,21.453,11.667,24.183z"/>
	<path d="M11.911,35.572c-0.759,1.741-0.583,3.313,0.178,4.622c0.761,1.309,2.113,2.36,3.723,3.066   c1.663,0.734,3.575,1.108,5.394,1.076c1.819-0.032,3.542-0.474,4.835-1.36c2.201-1.509,0.547-4.909-1.452-4.068   c-0.606-0.094-1.945-0.196-3.316,0.049l0,0c-1.397,0.23-2.871,0.075-3.82-0.519c-0.417-0.261-0.673-0.627-0.708-1.069   c-0.006-0.072-0.008-0.145-0.03-0.215c-0.083-0.265-0.004-0.316-0.032-0.362C17.299,34.216,13.112,32.816,11.911,35.572z"/>
	<path d="M12.156,46.96c-0.771,1.678-0.634,3.224,0.078,4.524c0.712,1.3,2.004,2.357,3.562,3.067   c1.637,0.75,3.528,1.129,5.341,1.088c1.813-0.041,3.546-0.507,4.877-1.43c1.973-1.368,0.74-4.303-0.916-3.943   c-0.611-0.341-1.935-0.571-3.291-0.15l0,0c-1.363,0.4-2.812,0.354-3.899-0.185c-0.438-0.217-0.766-0.545-0.913-0.94   c-0.025-0.068-0.049-0.14-0.086-0.205c-0.173-0.308-0.049-0.295-0.096-0.28C17.656,45.863,13.433,44.18,12.156,46.96z"/>
	<path d="M12.4,58.348c-0.782,1.616-0.685,3.136-0.023,4.427c0.662,1.291,1.895,2.355,3.402,3.068   c1.612,0.767,3.481,1.15,5.288,1.099c1.807-0.05,3.55-0.538,4.92-1.5c1.745-1.225,0.933-3.698-0.381-3.818   c-0.616-0.588-1.925-0.945-3.265-0.35l0,0c-1.328,0.569-2.748,0.623-3.978,0.15c-0.458-0.176-0.867-0.46-1.118-0.811   c-0.046-0.065-0.09-0.132-0.141-0.195c-0.272-0.34-0.094-0.274-0.161-0.198C18.013,57.511,13.756,55.546,12.4,58.348z"/>
	<path d="M12.644,69.736c-0.791,1.554-0.736,3.047-0.123,4.329c0.613,1.282,1.786,2.353,3.241,3.069   c1.587,0.783,3.434,1.171,5.235,1.111c1.802-0.059,3.555-0.569,4.963-1.57c1.519-1.08,1.125-3.092,0.155-3.693   c-0.622-0.835-1.915-1.32-3.24-0.549l0,0c-1.293,0.739-2.683,0.883-4.057,0.485c-0.477-0.138-0.969-0.369-1.322-0.682   c-0.068-0.06-0.132-0.123-0.196-0.185c-0.374-0.364-0.139-0.252-0.225-0.116C18.37,69.158,14.082,66.912,12.644,69.736z"/>
	<path d="M23.411,83.59c-1.259,0.909-2.618,1.134-4.136,0.819c-0.594-0.123-1.296-0.343-1.779-0.729   c-0.478-0.382-0.184-0.231-0.29-0.034c1.521-2.842-2.795-5.367-4.317-2.524c-0.799,1.493-0.787,2.959-0.224,4.231   c0.563,1.272,1.677,2.351,3.081,3.069c1.561,0.8,3.387,1.192,5.182,1.123c1.796-0.068,3.562-0.597,5.006-1.64   c1.294-0.934,1.318-2.486,0.691-3.569C25.998,83.257,24.72,82.645,23.411,83.59L23.411,83.59z"/>
</g>
<path d="M21.011,94.467c0.248,0.101,0.516,0.178,0.823,0.199c21.396,1.516,43.009,1.116,64.432,0.384  c1.478-0.051,2.346-1.108,2.5-2.5c1.618-14.601,0.282-29.942,0.069-44.592c-0.128-8.78-0.281-17.559-0.416-26.339  c-0.047-3.092-0.093-6.184-0.119-9.277c-0.008-0.936-0.012-1.872-0.007-2.808c0.002-0.333,0.173-1.896-0.042-0.701  c0.277-1.541-0.67-3.214-2.411-3.165C64.468,6.271,43.269,7.777,21.9,6.308c-1.344-0.092-2.522,1.207-2.5,2.5  c0.479,27.786,0.416,55.573-0.065,83.358C19.313,93.436,20.077,94.197,21.011,94.467z M24.433,11.461  c19.602,1.138,39.074-0.091,58.678-0.708c-0.105,3.093,0.242,6.325,0.285,9.288c0.131,8.95,0.29,17.899,0.424,26.848  c0.212,14.189,1.454,29.018,0.186,43.233c-19.838,0.654-39.823,0.961-59.639-0.304C24.796,63.7,24.851,37.579,24.433,11.461z"/>
<path d="M35.826,78c13.321,0,26.641,0,39.962,0c1.362,0,2.501-0.902,2.5-2.265c-0.004-4.347,0.4-8.664-1.03-12.837  c-2.271-6.625-8.019-11.307-14.375-13.746c-12.986-4.984-27.235,4.222-29.341,17.397C33.213,66.911,33,67.39,33,68  c0,3,0,5.429,0,7.971C33,77.333,34.464,78,35.826,78z M38,69.444c0.176-0.311,0.295-0.674,0.326-1.098  c0.915-12.303,14.435-18.418,25.057-13.545c4.875,2.236,9.195,7.266,9.86,12.691c0.227,1.849,0.169,3.672,0.107,5.508  C61.567,73,49.783,73,38,73C38,71.869,38,70.695,38,69.444z"/>
<path d="M55.315,44.493c6.208,0.334,10.755-5.037,11.408-10.736c0.054-0.228,0.089-0.471,0.074-0.746  c0.015-0.27-0.018-0.509-0.071-0.734c-0.649-6.103-5.168-10.412-11.411-10.748c-6.478-0.349-11.16,5.515-11.482,11.482  C43.484,39.489,49.348,44.171,55.315,44.493z M61.797,33.011c-0.45,8.356-12.513,8.356-12.963,0  C48.383,24.65,61.349,24.694,61.797,33.011z"/>
<text x="0.0" y="117.5" font-size="5.0" font-weight="bold" font-family="Helvetica Neue, Helvetica, Arial-Unicode, Arial, Sans-serif" fill="#000000">Created by Arthur Shlain</text><text x="0.0" y="122.5" font-size="5.0" font-weight="bold" font-family="Helvetica Neue, Helvetica, Arial-Unicode, Arial, Sans-serif" fill="#000000">from the Noun Project</text></svg>