<svg xmlns="http://www.w3.org/2000/svg" xmlns:xlink="http://www.w3.org/1999/xlink" version="1.1" id="Ebene_1" x="0px" y="0px" width="100px" height="75.779px" viewBox="0.0 -0.4679 100.0 102.30165" enable-background="new -5 7.11 100 75.779" xml:space="preserve">
<path d="M76.696,43.716c-1.655-0.281-3.379-0.436-5.147-0.436c-1.636,0-2.964,1.328-2.964,2.963v33.683  c0,1.635,1.328,2.964,2.964,2.964c1.769,0,3.492-0.154,5.147-0.436V43.716z"/>
<path d="M82.148,45.203v35.764C89.768,78.035,95,72.051,95,65.157v-4.146C95,54.119,89.768,48.134,82.148,45.203z"/>
<path d="M43.942,12.562h2.116c16.426,0,29.872,13.84,30.607,31.146l5.484,1.496c0-21.005-16.188-38.093-36.092-38.093h-2.116h-0.03  c-19.901,0-36.091,17.088-36.091,38.093l5.484-1.496c0.735-17.306,14.181-31.146,30.606-31.146H43.942z"/>
<path d="M13.304,43.716c1.659-0.281,3.379-0.436,5.148-0.436c1.637,0,2.964,1.328,2.964,2.963v33.683  c0,1.635-1.327,2.964-2.964,2.964c-1.769,0-3.489-0.154-5.148-0.436V43.716z"/>
<path d="M7.853,45.203v35.764C0.234,78.035-5,72.051-5,65.157v-4.146C-5,54.119,0.234,48.134,7.853,45.203z"/>
<text x="-5.0" y="96.150325" font-size="3.78895" font-weight="bold" font-family="Helvetica Neue, Helvetica, Arial-Unicode, Arial, Sans-serif" fill="#000000">Created by Dara Ullrich</text><text x="-5.0" y="99.939275" font-size="3.78895" font-weight="bold" font-family="Helvetica Neue, Helvetica, Arial-Unicode, Arial, Sans-serif" fill="#000000">from the Noun Project</text></svg>