<svg xmlns="http://www.w3.org/2000/svg" xmlns:xlink="http://www.w3.org/1999/xlink" version="1.1" id="Layer_1" x="0px" y="0px" width="100px" height="100px" viewBox="5.0 -10.0 100.0 135.0" enable-background="new 0 0 100 100" xml:space="preserve">
<path fill-rule="evenodd" clip-rule="evenodd" d="M82.162,10.474V2.898H13.249v7.575h12.122v56.032l-1.3,5.291l-1.984,2.886  l-0.708,2.314c-2.521,1.982-4.146,5.053-4.146,8.507c0,5.977,4.846,10.822,10.822,10.822c5.976,0,10.822-4.846,10.822-10.822  c0-3.645-1.808-6.862-4.57-8.823l-0.464-1.761l-2.316-3.123l-0.79-5.291V10.474h37.921v56.032l-1.3,5.291l-1.984,2.886l-0.707,2.314  c-2.521,1.982-4.147,5.053-4.147,8.507c0,5.977,4.846,10.822,10.822,10.822s10.821-4.846,10.821-10.822  c0-3.645-1.809-6.862-4.569-8.823l-0.464-1.761l-2.316-3.123l-0.79-5.291V10.474H82.162z M36.306,85.504  c0,4.558-3.694,8.254-8.252,8.254s-8.252-3.696-8.252-8.254s3.695-8.253,8.252-8.253S36.306,80.946,36.306,85.504z M79.594,85.504  c0,4.558-3.696,8.254-8.253,8.254c-4.559,0-8.253-3.696-8.253-8.254s3.694-8.253,8.253-8.253  C75.897,77.251,79.594,80.946,79.594,85.504z"/>
<text x="0.0" y="117.5" font-size="5.0" font-weight="bold" font-family="Helvetica Neue, Helvetica, Arial-Unicode, Arial, Sans-serif" fill="#000000">Created by Roy Milton</text><text x="0.0" y="122.5" font-size="5.0" font-weight="bold" font-family="Helvetica Neue, Helvetica, Arial-Unicode, Arial, Sans-serif" fill="#000000">from the Noun Project</text></svg>