<svg xmlns="http://www.w3.org/2000/svg" xmlns:xlink="http://www.w3.org/1999/xlink" version="1.1" id="Layer_1" x="0px" y="0px" viewBox="5.0 -10.0 100.0 135.0" enable-background="new 0 0 100 100" xml:space="preserve" height="100px" width="100px">
<path fill="#000000" d="M82.308,52.062h-18.74l-13.37-7.64c-0.117-0.067-0.263-0.069-0.384-0.007l-14.598,7.646H17.692  c-0.221,0-0.4,0.18-0.4,0.4V54v2.308v0.77v0.769v1.539v0.77v0.769v0.77v1.538v1.539v1.538v3.077v1.99c0,0,0.006,0.014,0.007,0.022  c0-0.008-0.007-0.014-0.007-0.014v1.079v9.23v10.77V94c0,0.221,0.179,0.4,0.4,0.4h64.615c0.221,0,0.4-0.18,0.4-0.4v-1.538v-10.77  v-9.23v-1.079c0,0-0.006,0.006-0.007,0.014c0-0.008,0.007-0.022,0.007-0.022v-1.99v-3.077V63.23v-0.769v-1.539v-0.769v-0.77v-1.539  v-0.769v-0.77V54v-1.538C82.708,52.241,82.528,52.062,82.308,52.062z M57.292,90.923v1.139H42.708v-1.139c0-0.221-0.179-0.4-0.4-0.4  h-1.138v-6.892h1.138c0.221,0,0.4-0.18,0.4-0.4v-1.538c0-0.221-0.179-0.4-0.4-0.4H41.19c0.212-4.683,4.076-8.43,8.81-8.43  c4.734,0,8.599,3.747,8.811,8.43h-1.118c-0.221,0-0.4,0.18-0.4,0.4v1.538c0,0.221,0.179,0.4,0.4,0.4h1.139v6.892h-1.139  C57.472,90.522,57.292,90.702,57.292,90.923z M34.215,90.923v1.139H18.092V81.692c0-4.869,3.961-8.83,8.831-8.83  c4.734,0,8.599,3.747,8.81,8.43h-1.118c-0.221,0-0.4,0.18-0.4,0.4v1.538c0,0.221,0.179,0.4,0.4,0.4h1.139v6.892h-1.139  C34.395,90.522,34.215,90.702,34.215,90.923z M41.908,82.093v0.737H40.77h-1.539h-1.539h-1.539h-1.139v-0.737h2.677h1.539H41.908z   M39.651,81.292c0.213-5.531,4.767-9.969,10.349-9.969c5.583,0,10.137,4.437,10.349,9.969h-0.739  c-0.212-5.124-4.435-9.23-9.611-9.23c-5.175,0-9.398,4.106-9.61,9.23H39.651z M37.292,90.522h-0.739v-6.892h0.739V90.522z   M38.092,83.631h0.739v6.892h-0.739V83.631z M40.37,90.522h-0.739v-6.892h0.739V90.522z M35.015,91.323h1.139h1.539h1.539h1.539  h1.138v0.738h-6.893V91.323z M61.169,83.631h0.738v6.892h-0.738V83.631z M60.37,90.522h-0.739v-6.892h0.739V90.522z M58.092,91.323  h1.139h1.539h1.538h1.539h1.139v0.738h-6.893V91.323z M62.708,90.522v-6.892h0.739v6.892H62.708z M63.846,82.83h-1.539H60.77h-1.539  h-1.139v-0.737h2.677h1.538h2.677v0.737H63.846z M61.163,81.292c-0.211-5.974-5.138-10.77-11.163-10.77s-10.951,4.796-11.162,10.77  h-0.752c-0.211-5.974-5.137-10.77-11.162-10.77c-3.513,0-6.724,1.613-8.831,4.361v-2.422v-0.898c2.45-2.137,5.577-3.318,8.831-3.318  c4.513,0,8.702,2.248,11.205,6.016c0.074,0.111,0.199,0.179,0.333,0.179s0.259-0.067,0.333-0.179  c2.503-3.768,6.692-6.016,11.206-6.016s8.702,2.248,11.206,6.016c0.074,0.111,0.199,0.179,0.333,0.179s0.259-0.067,0.333-0.179  c2.503-3.768,6.692-6.016,11.206-6.016c3.254,0,6.38,1.18,8.831,3.318v0.898v2.422c-2.107-2.748-5.318-4.361-8.831-4.361  c-6.025,0-10.951,4.796-11.163,10.77H61.163z M18.092,56.308c0-0.204,0.166-0.369,0.369-0.369s0.37,0.165,0.37,0.369v0.444  c-0.118-0.04-0.239-0.075-0.37-0.075c-0.131,0-0.252,0.035-0.369,0.075V56.308z M19.631,54.4h0.739v0.812  c-0.118-0.04-0.239-0.075-0.37-0.075c-0.131,0-0.252,0.035-0.369,0.075V54.4z M21.169,54.4h0.738v0.812  c-0.118-0.04-0.238-0.075-0.369-0.075s-0.252,0.035-0.369,0.075V54.4z M24.246,54.4h0.739v0.812c-0.118-0.04-0.239-0.075-0.37-0.075  c-0.131,0-0.252,0.035-0.369,0.075V54.4z M25.785,54.4h0.739v0.812c-0.118-0.04-0.239-0.075-0.37-0.075  c-0.131,0-0.252,0.035-0.369,0.075V54.4z M27.323,54.4h0.738v0.812c-0.118-0.04-0.238-0.075-0.369-0.075s-0.252,0.035-0.369,0.075  V54.4z M30.4,54.4h0.351L30.4,54.584V54.4z M29.6,55.003l-0.288,0.151c-0.028-0.002-0.052-0.017-0.081-0.017  c-0.131,0-0.252,0.035-0.37,0.075V54.4H29.6V55.003z M68.062,54.629l-0.4-0.229h0.4V54.629z M68.861,54.4H69.6v0.812  c-0.118-0.04-0.238-0.075-0.369-0.075c-0.073,0-0.137,0.029-0.206,0.042l-0.163-0.093V54.4z M71.938,54.4h0.739v0.812  c-0.118-0.04-0.239-0.075-0.37-0.075c-0.131,0-0.252,0.035-0.369,0.075V54.4z M73.477,54.4h0.738v0.812  c-0.118-0.04-0.238-0.075-0.369-0.075s-0.252,0.035-0.369,0.075V54.4z M78.092,54.4h0.739v0.812c-0.118-0.04-0.239-0.075-0.37-0.075  c-0.131,0-0.252,0.035-0.369,0.075V54.4z M79.631,54.4h0.739v0.812c-0.118-0.04-0.239-0.075-0.37-0.075  c-0.131,0-0.252,0.035-0.369,0.075V54.4z M71.938,56.308c0-0.204,0.166-0.369,0.369-0.369s0.37,0.165,0.37,0.369v0.444  c-0.118-0.04-0.239-0.075-0.37-0.075c-0.131,0-0.252,0.035-0.369,0.075V56.308z M73.477,56.308c0-0.204,0.166-0.369,0.369-0.369  s0.369,0.165,0.369,0.369v0.444c-0.118-0.04-0.238-0.075-0.369-0.075s-0.252,0.035-0.369,0.075V56.308z M78.092,57.846  c0-0.203,0.166-0.368,0.369-0.368s0.37,0.165,0.37,0.368v0.444c-0.118-0.04-0.239-0.075-0.37-0.075  c-0.131,0-0.252,0.035-0.369,0.075V57.846z M79.631,57.846c0-0.203,0.166-0.368,0.369-0.368s0.37,0.165,0.37,0.368v0.444  c-0.118-0.04-0.239-0.075-0.37-0.075c-0.131,0-0.252,0.035-0.369,0.075V57.846z M80.37,56.751c-0.118-0.04-0.239-0.075-0.37-0.075  c-0.131,0-0.252,0.035-0.369,0.075v-0.444c0-0.204,0.166-0.369,0.369-0.369s0.37,0.165,0.37,0.369V56.751z M78.831,56.751  c-0.118-0.04-0.239-0.075-0.37-0.075c-0.131,0-0.252,0.035-0.369,0.075v-0.444c0-0.204,0.166-0.369,0.369-0.369  s0.37,0.165,0.37,0.369V56.751z M77.292,56.751c-0.118-0.04-0.238-0.075-0.369-0.075c-0.131,0-0.252,0.035-0.37,0.075v-0.444  c0-0.204,0.166-0.369,0.37-0.369s0.369,0.165,0.369,0.369V56.751z M75.754,56.751c-0.118-0.04-0.238-0.075-0.369-0.075  c-0.131,0-0.252,0.035-0.37,0.075v-0.444c0-0.204,0.166-0.369,0.37-0.369s0.369,0.165,0.369,0.369V56.751z M75.015,57.846  c0-0.203,0.166-0.368,0.37-0.368s0.369,0.165,0.369,0.368v0.444c-0.118-0.04-0.238-0.075-0.369-0.075  c-0.131,0-0.252,0.035-0.37,0.075V57.846z M76.554,57.846c0-0.203,0.166-0.368,0.37-0.368s0.369,0.165,0.369,0.368v0.444  c-0.118-0.04-0.238-0.075-0.369-0.075c-0.131,0-0.252,0.035-0.37,0.075V57.846z M78.092,59.385c0-0.204,0.166-0.369,0.369-0.369  s0.37,0.165,0.37,0.369v0.444c-0.118-0.04-0.239-0.075-0.37-0.075c-0.131,0-0.252,0.035-0.369,0.075V59.385z M79.631,59.385  c0-0.204,0.166-0.369,0.369-0.369s0.37,0.165,0.37,0.369v0.444c-0.118-0.04-0.239-0.075-0.37-0.075  c-0.131,0-0.252,0.035-0.369,0.075V59.385z M77.292,55.212c-0.118-0.04-0.238-0.075-0.369-0.075c-0.131,0-0.252,0.035-0.37,0.075  V54.4h0.739V55.212z M75.754,55.212c-0.118-0.04-0.238-0.075-0.369-0.075c-0.131,0-0.252,0.035-0.37,0.075V54.4h0.739V55.212z   M71.139,55.212c-0.118-0.04-0.238-0.075-0.369-0.075c-0.131,0-0.252,0.035-0.37,0.075V54.4h0.739V55.212z M70.77,55.938  c0.204,0,0.369,0.165,0.369,0.369v0.08l-0.615-0.351C70.589,55.977,70.674,55.938,70.77,55.938z M73.846,57.478  c0.204,0,0.369,0.165,0.369,0.368v0.3l-0.716-0.409C73.547,57.587,73.681,57.478,73.846,57.478z M76.554,59.385  c0-0.204,0.166-0.369,0.37-0.369s0.369,0.165,0.369,0.369v0.444c-0.065-0.022-0.134-0.031-0.204-0.041l-0.535-0.306V59.385z   M78.461,60.555c0.143,0,0.265,0.084,0.326,0.203l-0.348-0.199C78.447,60.559,78.454,60.555,78.461,60.555z M79.631,60.923  c0-0.203,0.166-0.368,0.369-0.368s0.37,0.165,0.37,0.368v0.444c-0.118-0.04-0.239-0.075-0.37-0.075  c-0.073,0-0.136,0.029-0.205,0.042l-0.164-0.094V60.923z M81.908,62.541l-0.614-0.351c0.065-0.059,0.15-0.097,0.245-0.097  c0.204,0,0.369,0.165,0.369,0.369V62.541z M60.493,72.062c-0.801-0.874-1.703-1.635-2.68-2.276h5.634v1.438  c-0.294,0.271-0.59,0.541-0.862,0.838H60.493z M61.929,72.862c-0.128,0.161-0.269,0.309-0.39,0.477  c-0.121-0.167-0.262-0.315-0.39-0.477H61.929z M64.246,69.785h1.018c-0.353,0.232-0.687,0.491-1.018,0.754V69.785z M56.439,68.984  c-1.849-0.938-3.906-1.456-6.039-1.515v-0.761h8.708c0.438,0.906,1.359,1.538,2.431,1.538s1.993-0.632,2.431-1.538h17.938v2.276  h-2.407c-0.127-0.064-0.255-0.125-0.384-0.185c-0.213-0.1-0.429-0.192-0.646-0.281c-0.166-0.068-0.333-0.137-0.502-0.198  c-0.224-0.082-0.452-0.155-0.68-0.225c-0.167-0.052-0.334-0.106-0.504-0.152c-0.241-0.065-0.484-0.117-0.728-0.17  c-0.162-0.035-0.322-0.074-0.485-0.103c-0.273-0.049-0.549-0.082-0.825-0.114c-0.138-0.016-0.274-0.04-0.413-0.052  c-0.416-0.037-0.835-0.058-1.257-0.058c-2.277,0-4.474,0.542-6.439,1.539H56.439z M37.416,72.062  c-0.272-0.297-0.568-0.567-0.862-0.838v-1.438h5.634c-0.977,0.642-1.879,1.402-2.68,2.276H37.416z M38.852,72.862  c-0.128,0.161-0.269,0.309-0.39,0.477c-0.121-0.167-0.262-0.315-0.39-0.477H38.852z M35.754,70.539  c-0.332-0.263-0.665-0.522-1.018-0.754h1.018V70.539z M33.362,68.984c-1.965-0.997-4.162-1.539-6.439-1.539  c-0.422,0-0.841,0.021-1.257,0.058c-0.138,0.012-0.274,0.036-0.411,0.052c-0.277,0.033-0.554,0.066-0.828,0.115  c-0.162,0.029-0.321,0.068-0.482,0.103c-0.245,0.053-0.491,0.105-0.732,0.171c-0.168,0.045-0.334,0.099-0.5,0.151  c-0.23,0.071-0.458,0.144-0.684,0.227c-0.168,0.062-0.333,0.129-0.499,0.197c-0.218,0.09-0.435,0.182-0.649,0.283  c-0.128,0.06-0.256,0.12-0.383,0.184h-2.407v-2.276H36.03c0.438,0.906,1.359,1.538,2.431,1.538s1.993-0.632,2.431-1.538H49.6v0.761  c-2.133,0.06-4.19,0.578-6.039,1.515H33.362z M58.868,65.907h-3.853v-2.276h0.37h4.235c-0.487,0.49-0.788,1.164-0.788,1.907  C58.831,65.665,58.852,65.785,58.868,65.907z M45.785,65.907v-2.276h0.369h3.077h1.539h3.077h0.369v2.276H45.785z M40.381,63.631  h4.234h0.37v2.276h-3.853c0.017-0.122,0.037-0.243,0.037-0.369C41.169,64.795,40.868,64.121,40.381,63.631z M35.754,65.907h-8.431  v-2.276h8.431v1.907V65.907z M38.461,63.631c1.052,0,1.908,0.855,1.908,1.907s-0.856,1.907-1.908,1.907  c-1.052,0-1.908-0.855-1.908-1.907S37.41,63.631,38.461,63.631z M36.554,57.478h7.662v2.276h-7.662V57.478z M54.215,51.323V53.6  H50.77h-1.539h-3.446v-2.276H54.215z M63.446,59.754h-7.662v-2.276h7.662V59.754z M58.831,56.677h-3.046v-1.139  c0-0.221-0.179-0.4-0.4-0.4h-1.539c-0.221,0-0.4,0.18-0.4,0.4v1.139h-2.277V54.4h7.662V56.677z M54.985,62.83h-0.739v-6.892h0.739  V62.83z M51.169,57.478h2.277v2.276h-2.277V57.478z M51.169,60.555h2.277v2.275h-2.277V60.555z M50.37,54.4v8.43h-0.739V54.4H50.37z   M48.831,60.555v2.275h-2.277v-2.275H48.831z M46.554,59.754v-2.276h2.277v2.276H46.554z M48.831,54.4v2.276h-2.277v-1.139  c0-0.221-0.179-0.4-0.4-0.4h-1.539c-0.221,0-0.4,0.18-0.4,0.4v1.139h-3.046V54.4H48.831z M45.754,62.83h-0.739v-6.892h0.739V62.83z   M61.539,63.631c1.052,0,1.908,0.855,1.908,1.907s-0.856,1.907-1.908,1.907s-1.908-0.855-1.908-1.907S60.487,63.631,61.539,63.631z   M64.246,65.538v-1.907h8.431v2.276h-8.431V65.538z M73.477,63.631h3.34l3.984,2.276h-7.323V63.631z M61.539,62.83h-5.754v-2.275  h15.649l3.982,2.275H61.539z M64.246,59.754v-2.276h1.803l3.984,2.276H64.246z M59.631,56.677V54.4h1.033l3.984,2.276H59.631z   M55.015,53.6v-2.276h0.264l3.984,2.276H55.015z M50.4,50.522v-1.987l3.478,1.987H50.4z M49.6,50.522h-3.848l3.848-2.016V50.522z   M44.985,51.323V53.6h-5.107l4.346-2.276H44.985z M40.37,54.4v2.276h-6.366l4.346-2.276H40.37z M35.754,57.478v2.276h-7.624  l4.346-2.276H35.754z M44.215,60.555v2.275h-5.754H22.257l4.344-2.275H44.215z M26.523,63.631v2.276h-8.431v-0.896l2.636-1.381  H26.523z M18.092,69.785h1.015c-0.133,0.087-0.26,0.185-0.39,0.277c-0.145,0.103-0.291,0.205-0.432,0.314  c-0.063,0.048-0.13,0.09-0.193,0.14V69.785z M81.908,69.785v0.73c-0.062-0.049-0.13-0.091-0.193-0.14  c-0.142-0.108-0.287-0.211-0.433-0.314c-0.13-0.092-0.257-0.189-0.39-0.277H81.908z M81.908,65.618l-31.709-18.12  c-0.117-0.067-0.263-0.069-0.384-0.007L18.092,64.108v-0.636l31.899-16.709l31.916,18.238V65.618z M18.092,60.923  c0-0.203,0.166-0.368,0.369-0.368c0.114,0,0.213,0.055,0.28,0.136l-0.65,0.34V60.923z M24.985,56.751  c-0.118-0.04-0.239-0.075-0.37-0.075c-0.131,0-0.252,0.035-0.369,0.075v-0.444c0-0.204,0.166-0.369,0.369-0.369  s0.37,0.165,0.37,0.369V56.751z M23.446,56.751c-0.118-0.04-0.238-0.075-0.369-0.075c-0.131,0-0.252,0.035-0.37,0.075v-0.444  c0-0.204,0.166-0.369,0.37-0.369s0.369,0.165,0.369,0.369V56.751z M20.37,59.829c-0.118-0.04-0.239-0.075-0.37-0.075  c-0.131,0-0.252,0.035-0.369,0.075v-0.444c0-0.204,0.166-0.369,0.369-0.369s0.37,0.165,0.37,0.369V59.829z M19.631,57.846  c0-0.203,0.166-0.368,0.369-0.368s0.37,0.165,0.37,0.368v0.444c-0.118-0.04-0.239-0.075-0.37-0.075  c-0.131,0-0.252,0.035-0.369,0.075V57.846z M21.169,57.846c0-0.203,0.166-0.368,0.369-0.368s0.369,0.165,0.369,0.368v0.444  c-0.118-0.04-0.238-0.075-0.369-0.075s-0.252,0.035-0.369,0.075V57.846z M21.908,56.751c-0.118-0.04-0.238-0.075-0.369-0.075  s-0.252,0.035-0.369,0.075v-0.444c0-0.204,0.166-0.369,0.369-0.369s0.369,0.165,0.369,0.369V56.751z M20.37,56.751  c-0.118-0.04-0.239-0.075-0.37-0.075c-0.131,0-0.252,0.035-0.369,0.075v-0.444c0-0.204,0.166-0.369,0.369-0.369  s0.37,0.165,0.37,0.369V56.751z M21.169,59.385c0-0.204,0.166-0.369,0.369-0.369c0.089,0,0.168,0.036,0.232,0.089l-0.601,0.315  V59.385z M23.077,58.215c-0.131,0-0.252,0.035-0.37,0.075v-0.444c0-0.203,0.166-0.368,0.37-0.368s0.369,0.165,0.369,0.368v0.381  l-0.087,0.045C23.267,58.248,23.177,58.215,23.077,58.215z M24.615,57.478c0.063,0,0.119,0.02,0.171,0.047l-0.532,0.278  C24.277,57.621,24.427,57.478,24.615,57.478z M26.154,56.677c-0.131,0-0.252,0.035-0.369,0.075v-0.444  c0-0.204,0.166-0.369,0.369-0.369s0.37,0.165,0.37,0.369v0.307l-0.188,0.098C26.274,56.704,26.218,56.677,26.154,56.677z   M27.781,55.956l-0.432,0.227c0.052-0.142,0.185-0.244,0.344-0.244C27.724,55.938,27.752,55.949,27.781,55.956z M23.446,55.212  c-0.118-0.04-0.238-0.075-0.369-0.075c-0.131,0-0.252,0.035-0.37,0.075V54.4h0.739V55.212z M18.092,57.846  c0-0.203,0.166-0.368,0.369-0.368s0.37,0.165,0.37,0.368v0.444c-0.118-0.04-0.239-0.075-0.37-0.075  c-0.131,0-0.252,0.035-0.369,0.075V57.846z M18.092,59.385c0-0.204,0.166-0.369,0.369-0.369s0.37,0.165,0.37,0.369v0.444  c-0.118-0.04-0.239-0.075-0.37-0.075c-0.131,0-0.252,0.035-0.369,0.075V59.385z M81.539,61.292c-0.131,0-0.252,0.035-0.369,0.075  v-0.444c0-0.203,0.166-0.368,0.369-0.368s0.369,0.165,0.369,0.368v0.444C81.79,61.327,81.669,61.292,81.539,61.292z M81.539,59.754  c-0.131,0-0.252,0.035-0.369,0.075v-0.444c0-0.204,0.166-0.369,0.369-0.369s0.369,0.165,0.369,0.369v0.444  C81.79,59.789,81.669,59.754,81.539,59.754z M81.539,58.215c-0.131,0-0.252,0.035-0.369,0.075v-0.444  c0-0.203,0.166-0.368,0.369-0.368s0.369,0.165,0.369,0.368v0.444C81.79,58.25,81.669,58.215,81.539,58.215z M81.539,56.677  c-0.131,0-0.252,0.035-0.369,0.075v-0.444c0-0.204,0.166-0.369,0.369-0.369s0.369,0.165,0.369,0.369v0.444  C81.79,56.712,81.669,56.677,81.539,56.677z M81.539,55.138c-0.131,0-0.252,0.035-0.369,0.075V54.4h0.738v0.812  C81.79,55.173,81.669,55.138,81.539,55.138z M81.908,52.862V53.6H80.77h-1.539h-1.539h-1.539h-1.539h-1.538h-1.539H70h-1.539H66.26  l-1.29-0.737H81.908z M49.992,45.226l31.916,18.237v0.617L50.198,45.96c-0.117-0.067-0.263-0.068-0.384-0.007L18.092,62.569v-0.635  L49.992,45.226z M18.092,52.862h15.595L32.28,53.6h-0.742H30h-1.539h-1.538h-1.539h-1.539h-1.539H20.77h-1.539h-1.139V52.862z   M18.831,54.4v0.812c-0.118-0.04-0.239-0.075-0.37-0.075c-0.131,0-0.252,0.035-0.369,0.075V54.4H18.831z M18.092,76.289  c1.906-3.11,5.197-4.966,8.831-4.966c5.582,0,10.136,4.437,10.349,9.969h-0.739c-0.212-5.124-4.435-9.23-9.61-9.23  c-3.949,0-7.346,2.391-8.831,5.799V76.289z M81.908,93.6H18.092v-0.737h16.523h7.692h15.385h7.692h16.523V93.6z M65.785,92.062  v-1.139c0-0.221-0.179-0.4-0.4-0.4h-1.139v-6.892h1.139c0.221,0,0.4-0.18,0.4-0.4v-1.538c0-0.221-0.179-0.4-0.4-0.4h-1.118  c0.212-4.683,4.076-8.43,8.811-8.43c4.869,0,8.831,3.961,8.831,8.83v10.369H65.785z M73.077,72.062c-5.175,0-9.398,4.106-9.611,9.23  h-0.739c0.213-5.531,4.767-9.969,10.349-9.969c3.634,0,6.925,1.856,8.831,4.966v1.571C80.423,74.452,77.026,72.062,73.077,72.062z   M38.461,66.708c0.645,0,1.169-0.525,1.169-1.17s-0.524-1.169-1.169-1.169c-0.645,0-1.169,0.524-1.169,1.169  S37.817,66.708,38.461,66.708z M38.461,65.17c0.204,0,0.37,0.165,0.37,0.368c0,0.204-0.166,0.369-0.37,0.369  s-0.369-0.165-0.369-0.369C38.092,65.335,38.258,65.17,38.461,65.17z M61.539,66.708c0.645,0,1.169-0.525,1.169-1.17  s-0.524-1.169-1.169-1.169s-1.169,0.524-1.169,1.169S60.894,66.708,61.539,66.708z M61.539,65.17c0.204,0,0.369,0.165,0.369,0.368  c0,0.204-0.166,0.369-0.369,0.369s-0.369-0.165-0.369-0.369C61.169,65.335,61.335,65.17,61.539,65.17z"/>
<text x="0.0" y="117.5" font-size="5.0" font-weight="bold" font-family="Helvetica Neue, Helvetica, Arial-Unicode, Arial, Sans-serif" fill="#000000">Created by NATAPON CHANTABUTR</text><text x="0.0" y="122.5" font-size="5.0" font-weight="bold" font-family="Helvetica Neue, Helvetica, Arial-Unicode, Arial, Sans-serif" fill="#000000">from the Noun Project</text></svg>